<svg xmlns="http://www.w3.org/2000/svg" viewBox="0 0 178.52 148.08"><defs><style>.cls-1{fill:none;}.cls-2{fill:#333;}.cls-3{fill:#ffdd80;}.cls-4{fill:#315489;}.cls-5{fill:#cdcccc;}</style></defs><title>icon search</title><g id="Слой_2" data-name="Слой 2"><g id="Слой_1-2" data-name="Слой 1"><path class="cls-1" d="M98.16,26.46H88.7A7.75,7.75,0,0,1,88.7,42H48.16a43.83,43.83,0,0,0-2.1,7H86.81V50.5H77.35a7.75,7.75,0,0,1,0,15.49H45.88a43.29,43.29,0,0,0,1.95,7H79.41v1.53H70A7.75,7.75,0,0,1,70,90H59.35a43.26,43.26,0,1,0,1-65.1H98.16Z"/><path class="cls-2" d="M48.16,42H32.67a58.62,58.62,0,0,0-1.54,7H46.06A43.83,43.83,0,0,1,48.16,42Z"/><path class="cls-2" d="M45.88,66H31a58.22,58.22,0,0,0,1.43,7h15.4A43.29,43.29,0,0,1,45.88,66Z"/><polygon class="cls-2" points="45.77 50.5 30.92 50.5 30.92 50.5 45.77 50.5 45.77 50.5"/><path class="cls-2" d="M174.92,127.19,142,94.28a12.24,12.24,0,0,0-6.14-3.3A57.92,57.92,0,0,0,47.37,17a57.44,57.44,0,0,0-6.65,8H60.38a43.26,43.26,0,1,1-1,65.1H40.11a57.86,57.86,0,0,0,81.29,15.42,12.24,12.24,0,0,0,3.32,6.14L157.6,144.5a12.24,12.24,0,0,0,17.32-17.31Z"/><polygon class="cls-2" points="48.43 74.54 32.85 74.54 32.85 74.54 48.43 74.54 48.43 74.54"/><path class="cls-3" d="M88.7,26.46H26.49a7.75,7.75,0,0,0,0,15.49H88.7a7.75,7.75,0,0,0,0-15.49Z"/><path class="cls-4" d="M77.35,50.5H15.14a7.75,7.75,0,0,0,0,15.49H77.35a7.75,7.75,0,0,0,0-15.49Z"/><path class="cls-5" d="M70,74.54H7.74A7.75,7.75,0,0,0,7.74,90H70a7.75,7.75,0,0,0,0-15.49Z"/></g></g></svg>